#!OML:ASF E:\Style4\Style4.ASF
:FULLY-SPECIFIED
:DEGREES
2633
root -0.0666676 17.1477 0.535756 -9.66886 12.9511 3.39811
lowerback 3.15945 3.46023 2.90756
upperback 1.68599 4.6957 -0.0561393
thorax 0.202455 2.37238 -1.80742
lowerneck -4.5745 -3.47655 -2.63632
upperneck 21.8632 -4.67609 1.37811
head 7.55516 -2.28045 0.534182
rclavicle 1.20563e-013 1.15295e-014
rhumerus 53.5616 -18.7731 -35.7144
rradius 79.0495
rwrist -14.0677
rhand 1.15334 10.0451
rfingers 7.12502
rthumb 26.6946 -18.0922
lclavicle 1.20563e-013 1.15295e-014
lhumerus 50.3675 22.7819 28.9414
lradius 87.2772
lwrist 11.0935
lhand 5.13298 24.332
lfingers 7.12502
lthumb 30.4968 51.8281
rfemur 1.02231 -10.4646 13.7392
rtibia 40.6644
rfoot -29.05 -22.2671
rtoes -10.7221
lfemur -3.2451 -3.70987 -22.1782
ltibia 39.6934
lfoot -25.0183 4.66549
ltoes -13.8496
2634
root -0.0654674 17.142 0.528947 -9.63335 12.9778 3.34265
lowerback 3.22858 3.44752 2.99559
upperback 1.63594 4.68403 -0.0552823
thorax 0.118976 2.36521 -1.8618
lowerneck -4.42419 -3.48191 -2.67249
upperneck 21.8928 -4.68765 1.40743
head 7.53993 -2.2867 0.551652
rclavicle -1.56046e-014 -2.06736e-014
rhumerus 53.746 -18.9633 -35.8927
rradius 79.1803
rwrist -14.0973
rhand 1.10147 10.0217
rfingers 7.12502
rthumb 26.645 -18.1232
lclavicle -1.56046e-014 -2.06736e-014
lhumerus 50.538 23.0107 29.0931
lradius 87.4217
lwrist 11.0243
lhand 4.93499 24.3785
lfingers 7.12502
lthumb 30.308 51.9096
rfemur 0.866749 -10.5219 13.7874
rtibia 40.8278
rfoot -29.089 -22.2353
rtoes -10.5628
lfemur -3.40169 -3.76586 -22.1322
ltibia 39.8288
lfoot -25.0517 4.65477
ltoes -13.7302
2635
root -0.065426 17.1338 0.522842 -9.65129 13.0285 3.39596
lowerback 3.34841 3.43519 2.96022
upperback 1.64164 4.67047 -0.0801967
thorax 0.0564806 2.35749 -1.87543
lowerneck -4.29014 -3.49893 -2.68912
upperneck 21.8743 -4.71161 1.41007
head 7.51091 -2.29995 0.556149
rclavicle -4.42296e-015 1.98785e-015
rhumerus 53.9608 -19.1881 -36.0998
rradius 79.2855
rwrist -14.0811
rhand 1.1519 9.97938
rfingers 7.12502
rthumb 26.6932 -18.1581
lclavicle -4.42296e-015 1.98785e-015
lhumerus 50.7839 23.2461 29.3026
lradius 87.5153
lwrist 10.869
lhand 4.72326 24.3057
lfingers 7.12502
lthumb 30.106 51.8737
rfemur 0.778094 -10.5751 13.7034
rtibia 41.0373
rfoot -29.0487 -22.3301
rtoes -10.7312
lfemur -3.48805 -3.80156 -22.2055
ltibia 40.0236
lfoot -25.1395 4.61237
ltoes -13.3354
2636
root -0.0658234 17.1244 0.517332 -9.67092 13.0988 3.47619
lowerback 3.45328 3.39982 2.85932
upperback 1.68519 4.62319 -0.0877718
thorax 0.0326711 2.33349 -1.8317
lowerneck -4.16424 -3.49794 -2.69966
upperneck 21.7323 -4.70875 1.40483
head 7.44168 -2.30152 0.559804
rclavicle 3.01656e-014 5.56597e-015
rhumerus 54.2576 -19.397 -36.2878
rradius 79.3677
rwrist -14.171
rhand 1.14336 9.80588
rfingers 7.12502
rthumb 26.6851 -18.3329
lclavicle 3.01656e-014 5.56597e-015
lhumerus 51.0063 23.5489 29.5004
lradius 87.6331
lwrist 10.8016
lhand 4.71339 24.2017
lfingers 7.12502
lthumb 30.0966 51.7715
rfemur 0.686605 -10.6343 13.5836
rtibia 41.2803
rfoot -29.1655 -22.3175
rtoes -10.6665
lfemur -3.5855 -3.84232 -22.3191
ltibia 40.2778
lfoot -25.2488 4.74052
ltoes -13.8135
2637
root -0.068195 17.1103 0.510769 -9.74287 13.1264 3.36582
lowerback 3.55732 3.37919 2.95388
upperback 1.75114 4.60128 -0.0497175
thorax 0.0456925 2.32402 -1.8489
lowerneck -4.13471 -3.50242 -2.743
upperneck 21.6613 -4.71862 1.44951
head 7.41547 -2.3064 0.581822
rclavicle 3.34952e-014 4.37326e-015
rhumerus 54.4897 -19.6374 -36.4301
rradius 79.4603
rwrist -14.2613
rhand 1.10976 9.75695
rfingers 7.12502
rthumb 26.6529 -18.3867
lclavicle 3.34952e-014 4.37326e-015
lhumerus 51.247 23.8349 29.6888
lradius 87.7811
lwrist 10.817
lhand 4.55183 24.1401
lfingers 7.12502
lthumb 29.9424 51.7377
rfemur 0.574863 -10.6403 13.7093
rtibia 41.567
rfoot -29.3772 -22.2759
rtoes -10.5062
lfemur -3.72275 -3.86176 -22.2012
ltibia 40.5582
lfoot -25.296 4.72295
ltoes -13.8169
2638
root -0.0706626 17.0939 0.502593 -9.87628 13.2003 3.28339
lowerback 3.74242 3.32901 2.98295
upperback 1.82055 4.54081 0.00849589
thorax 0.00810026 2.29403 -1.81361
lowerneck -4.01036 -3.49142 -2.84392
upperneck 21.562 -4.70459 1.50787
head 7.36442 -2.30388 0.621769
rclavicle 5.95857e-014 -3.57812e-015
rhumerus 54.7085 -19.7731 -36.595
rradius 79.6086
rwrist -14.1955
rhand 1.06852 9.75625
rfingers 7.12502
rthumb 26.6134 -18.3934
lclavicle 5.95857e-014 -3.57812e-015
lhumerus 51.394 24.1024 29.8768
lradius 87.9789
lwrist 10.8456
lhand 4.30854 24.2336
lfingers 7.12502
lthumb 29.7102 51.8729
rfemur 0.521643 -10.6928 13.7794
rtibia 41.8982
rfoot -29.589 -22.2358
rtoes -10.5764
lfemur -3.8046 -3.88778 -22.1113
ltibia 40.8524
lfoot -25.3665 4.71814
ltoes -14.0656
2639
root -0.0724573 17.0785 0.497283 -9.96984 13.2525 3.33576
lowerback 3.89396 3.33582 2.93121
upperback 1.87265 4.5526 0.0061251
thorax -0.0260935 2.29983 -1.79581
lowerneck -3.73874 -3.52049 -2.9557
upperneck 21.35 -4.75487 1.60724
head 7.25318 -2.33095 0.675381
rclavicle -3.74212e-014 -1.35174e-014
rhumerus 54.7243 -19.9335 -36.706
rradius 79.7886
rwrist -14.0856
rhand 0.93653 9.92069
rfingers 7.12502
rthumb 26.4871 -18.2481
lclavicle -3.74212e-014 -1.35174e-014
lhumerus 51.6078 24.2599 30.1746
lradius 88.2366
lwrist 10.8125
lhand 4.28185 24.4158
lfingers 7.12502
lthumb 29.6848 52.0597
rfemur 0.430731 -10.7321 13.706
rtibia 42.2703
rfoot -29.5674 -22.3013
rtoes -10.9369
lfemur -3.87975 -3.85492 -22.1655
ltibia 41.1501
lfoot -25.4906 4.82685
ltoes -14.7395
2640
root -0.0735654 17.0619 0.492943 -10.046 13.3094 3.46211
lowerback 4.0128 3.37705 2.84286
upperback 1.93649 4.60752 -0.0284754
thorax -0.0280258 2.3278 -1.78933
lowerneck -3.49245 -3.58723 -3.03049
upperneck 21.151 -4.85107 1.65688
head 7.15021 -2.3811 0.702731
rclavicle 3.29983e-014 -7.15625e-015
rhumerus 54.6386 -20.1616 -36.6846
rradius 79.9483
rwrist -14.0087
rhand 0.823045 10.0275
rfingers 7.12502
rthumb 26.3785 -18.1576
lclavicle 3.29983e-014 -7.15625e-015
lhumerus 51.8431 24.3597 30.4796
lradius 88.5394
lwrist 10.8935
lhand 4.41512 24.519
lfingers 7.12502
lthumb 29.8119 52.1401
rfemur 0.337721 -10.8225 13.5202
rtibia 42.6688
rfoot -29.7753 -22.0769
rtoes -10.3338
lfemur -3.95966 -3.8469 -22.3099
ltibia 41.4685
lfoot -25.6525 4.82995
ltoes -14.9652
